<?xml version="1.0" encoding="iso-8859-1"?>
<!-- Uploaded to: SVG Repo, www.svgrepo.com, Generator: SVG Repo Mixer Tools -->
<svg version="1.1" id="Layer_1" xmlns="http://www.w3.org/2000/svg" xmlns:xlink="http://www.w3.org/1999/xlink" 
	 viewBox="0 0 512 512" xml:space="preserve">
<circle style="fill:#FFE356;" cx="256" cy="256" r="256"/>
<path style="fill:#FFFFFF;" d="M64.102,86.534h307.921v397.703C337.205,502.002,297.77,512,256,512C114.601,512,0,397.399,0,256
	c0-64.964,24.209-124.295,64.102-169.415V86.534z"/>
<rect x="74.557" y="211.794" style="fill:#FF7069;" width="254.173" height="73.643"/>
<path style="fill:#C6CBD6;" d="M100.339,306.601h228.339v-7.207H100.339V306.601z M100.339,392.476h131.502v-7.207H100.339V392.476z
	 M100.339,375.321h228.339v-7.207H100.339V375.321z M100.339,358.167h228.339v-7.207H100.339V358.167z M100.339,341.012h228.339
	v-7.207H100.339V341.012z M100.339,323.857h228.339v-7.207H100.339V323.857z"/>
<path style="fill:#8597B1;" d="M145.865,131.959v42.075h-9.237v-58.062h12.891l10.557,34.766v-34.766h9.136v58.062h-10.557
	L145.865,131.959z M197.634,140.435h14.109v8.273h-14.109v17.002h17.713v8.273h-28.016v-58.062h28.016v8.273h-17.713v16.19V140.435z
	 M255.289,143.074l-3.756,30.96h-14.109l-7.258-58.062h9.998l5.532,45.78l4.923-45.78h9.897l5.126,46.135l5.329-46.135h8.983
	l-7.258,58.062h-13.602l-3.756-30.96H255.289z M294.573,129.878c0-4.72,1.269-8.324,3.806-10.81
	c2.538-2.538,6.293-3.756,11.318-3.756c5.025,0,8.831,1.269,11.318,3.756c2.538,2.538,3.806,6.141,3.806,10.81v1.827h-9.694v-2.385
	c0-2.081-0.457-3.603-1.37-4.416c-0.914-0.863-2.182-1.269-3.756-1.269c-1.624,0-2.893,0.406-3.807,1.269
	c-0.914,0.863-1.37,2.335-1.37,4.416c0,1.979,0.508,3.756,1.523,5.278c1.015,1.523,2.233,2.944,3.756,4.314
	c1.472,1.37,3.096,2.69,4.822,4.06s3.299,2.842,4.822,4.416c1.472,1.624,2.741,3.451,3.756,5.481s1.472,4.466,1.472,7.207
	c0,4.72-1.269,8.324-3.857,10.81c-2.588,2.538-6.395,3.756-11.42,3.756c-5.025,0-8.831-1.269-11.419-3.756
	c-2.588-2.538-3.857-6.141-3.857-10.81v-3.553h9.694v4.162c0,2.081,0.508,3.553,1.472,4.416c0.964,0.812,2.233,1.269,3.857,1.269
	s2.893-0.406,3.857-1.269c0.964-0.812,1.472-2.284,1.472-4.416c0-1.979-0.508-3.756-1.472-5.278
	c-1.015-1.523-2.233-2.944-3.756-4.314c-1.472-1.37-3.096-2.69-4.822-4.06c-1.726-1.37-3.299-2.842-4.822-4.416
	c-1.472-1.624-2.741-3.451-3.756-5.481c-1.015-2.03-1.472-4.466-1.472-7.207L294.573,129.878z"/>
<g>
	<polygon style="fill:#C6CBD6;" points="253.209,400.546 328.73,400.546 328.73,482.056 253.209,482.056 	"/>
	<path style="fill:#C6CBD6;" d="M53.545,412.676h185.808v-7.207H48.165C49.941,407.905,51.718,410.29,53.545,412.676z
		 M134.496,481.396c-4.213-2.284-8.374-4.669-12.485-7.207h117.342v7.207H134.496z M107.039,464.241
		c-3.248-2.335-6.446-4.72-9.592-7.207h141.906v7.207H107.039z M85.621,447.086c-2.639-2.335-5.228-4.771-7.765-7.207h161.497v7.207
		H85.621z M68.111,429.932c-2.182-2.385-4.314-4.771-6.446-7.207h177.688v7.207H68.111z"/>
	<path style="fill:#C6CBD6;" d="M3.807,300.155H85.57v91.153H38.674C21.621,363.952,9.542,333.145,3.807,300.155z"/>
	<path style="fill:#C6CBD6;" d="M2.791,218.239H57.96v-7.207H3.959C3.553,213.418,3.147,215.803,2.791,218.239z M1.878,286.96
		c-0.305-2.385-0.558-4.771-0.761-7.207H57.96v7.207H1.878z M0.406,269.805c-0.152-2.385-0.203-4.822-0.305-7.207H57.96v7.207H0.355
		H0.406z M0.051,252.65c0.051-2.436,0.102-4.822,0.203-7.207H57.96v7.207H0.051z M0.863,235.496c0.203-2.436,0.406-4.822,0.66-7.207
		H57.96v7.207H0.812H0.863z"/>
</g>
<path style="fill:#83CF8F;" d="M9.846,185.453h315.026v7.359H7.867C8.476,190.325,9.136,187.889,9.846,185.453z"/>
<path style="fill:#E4E7ED;" d="M372.022,302.186h27.661v165.659c-8.831,5.989-18.068,11.47-27.661,16.393V302.186z"/>
</svg>