<?xml version="1.0" encoding="iso-8859-1"?>
<!-- Uploaded to: SVG Repo, www.svgrepo.com, Generator: SVG Repo Mixer Tools -->
<svg height="800px" width="800px" version="1.1" id="Layer_1" xmlns="http://www.w3.org/2000/svg" xmlns:xlink="http://www.w3.org/1999/xlink" 
	 viewBox="0 0 512.001 512.001" xml:space="preserve">
<path style="fill:#FFB14E;" d="M191.022,136.918L256,114.836l64.978,22.083c-11.13,63.09,1.811,130.42,41.46,187.04
	c-48.88,48.88-73.314,112.942-73.314,177.003h-66.248c0-64.062-24.434-128.123-73.314-177.003
	C189.211,267.338,202.152,200.008,191.022,136.918z"/>
<polygon style="fill:#FFCE47;" points="330.662,81.712 320.978,136.918 191.022,136.918 181.339,81.712 256,48.588 "/>
<polygon style="fill:#3B8BC0;" points="146.861,11.042 159.258,81.713 352.74,81.713 365.138,11.042 "/>
<g>
	<path style="fill:#01121C;" d="M278.083,323.961c0-12.176-9.906-22.083-22.083-22.083c-12.176,0-22.083,9.906-22.083,22.083
		c0,8.152,4.452,15.269,11.041,19.095v157.903c0,6.098,4.944,11.041,11.041,11.041c6.097,0,11.041-4.943,11.041-11.041V343.056
		C273.63,339.232,278.083,332.114,278.083,323.961z"/>
	<path style="fill:#01121C;" d="M339.931,92.756h12.81c5.362,0,9.949-3.852,10.876-9.133l12.398-70.671
		c1.053-6.006-2.961-11.73-8.968-12.784c-6.003-1.053-11.73,2.96-12.783,8.968L343.47,70.674H168.532L157.736,9.136
		c-1.053-6.005-6.775-10.023-12.783-8.968c-6.006,1.053-10.021,6.777-8.968,12.784l12.398,70.671
		c0.926,5.281,5.513,9.133,10.876,9.133h12.81l8.084,46.082c11.099,62.941-2.978,126.436-39.636,178.79
		c-3.073,4.39-2.553,10.351,1.237,14.141c45.193,45.192,70.081,105.278,70.081,169.189c0,6.098,4.944,11.041,11.041,11.041
		s11.041-4.943,11.041-11.041c0-66.755-24.863-129.693-70.2-178.236c33.842-52.023,47.891-113.319,40.135-174.761h104.294
		c-7.754,61.446,6.295,122.74,40.135,174.761c-45.338,48.542-70.2,111.481-70.2,178.236c0,6.098,4.944,11.041,11.041,11.041
		s11.041-4.943,11.041-11.041c0-63.912,24.888-123.997,70.081-169.189c3.789-3.789,4.309-9.752,1.237-14.141
		c-36.658-52.353-50.735-115.849-39.634-178.8L339.931,92.756z M317.511,92.756l-5.81,33.124H200.299l-5.811-33.124H317.511z"/>
</g>
</svg>