<?xml version="1.0" encoding="utf-8"?>

<!-- Uploaded to: SVG Repo, www.svgrepo.com, Generator: SVG Repo Mixer Tools -->
<svg fill="#CACACA" height="40px" width="40px" version="1.1" id="Icons" xmlns="http://www.w3.org/2000/svg" xmlns:xlink="http://www.w3.org/1999/xlink"
	 viewBox="0 0 32 32" xml:space="preserve">
<path d="M21,2H11c-5,0-9,4-9,9v10c0,5,4,9,9,9h10c5,0,9-4,9-9V11C30,6,26,2,21,2z M21.7,18.7C21.5,18.9,21.3,19,21,19
	s-0.5-0.1-0.7-0.3L16,14.4l-4.3,4.3c-0.4,0.4-1,0.4-1.4,0s-0.4-1,0-1.4l5-5c0.4-0.4,1-0.4,1.4,0l5,5C22.1,17.7,22.1,18.3,21.7,18.7z
	"/>
</svg>
