<?xml version="1.0" encoding="utf-8"?><!-- Uploaded to: SVG Repo, www.svgrepo.com, Generator: SVG Repo Mixer Tools -->
<svg fill="#000000" width="800px" height="800px" viewBox="0 0 24 24" xmlns="http://www.w3.org/2000/svg" id="more-circle-horizontal" class="icon glyph"><path d="M12,2A10,10,0,1,0,22,12,10,10,0,0,0,12,2ZM9.47,12.29a1.31,1.31,0,0,1-.09.28,1.05,1.05,0,0,1-.13.26,1.45,1.45,0,0,1-.19.23,2.11,2.11,0,0,1-.23.19l-.26.14-.28.08a1.42,1.42,0,0,1-.58,0l-.28-.08-.26-.14a2.11,2.11,0,0,1-.23-.19,1.45,1.45,0,0,1-.19-.23,1.59,1.59,0,0,1-.14-.26,2.29,2.29,0,0,1-.08-.28,1.36,1.36,0,0,1,0-.29,1.52,1.52,0,0,1,.44-1.06,2.11,2.11,0,0,1,.23-.19,1.26,1.26,0,0,1,.26-.13,1.31,1.31,0,0,1,.28-.09,1.42,1.42,0,0,1,.58,0,1.31,1.31,0,0,1,.28.09,1.26,1.26,0,0,1,.26.13,2.11,2.11,0,0,1,.23.19A1.52,1.52,0,0,1,9.5,12,1.36,1.36,0,0,1,9.47,12.29Zm3.59.77A1.52,1.52,0,0,1,12,13.5a1.36,1.36,0,0,1-.29,0l-.28-.08a1.59,1.59,0,0,1-.26-.14,1.45,1.45,0,0,1-.23-.19A1.52,1.52,0,0,1,10.5,12a1.36,1.36,0,0,1,0-.29,2.29,2.29,0,0,1,.08-.28,2.15,2.15,0,0,1,.14-.26,1.57,1.57,0,0,1,.42-.42l.26-.14.28-.08a1.5,1.5,0,0,1,1.35.41,1.45,1.45,0,0,1,.19.23,1.26,1.26,0,0,1,.13.26,1.31,1.31,0,0,1,.09.28,1.36,1.36,0,0,1,0,.29A1.52,1.52,0,0,1,13.06,13.06Zm4.41-.77a1.31,1.31,0,0,1-.09.28,1.05,1.05,0,0,1-.13.26,1.45,1.45,0,0,1-.19.23A1.52,1.52,0,0,1,16,13.5a1.5,1.5,0,0,1-1.06-.44,1.45,1.45,0,0,1-.19-.23,1.59,1.59,0,0,1-.14-.26,2.29,2.29,0,0,1-.08-.28,1.36,1.36,0,0,1,0-.29,1.52,1.52,0,0,1,.44-1.06,1.55,1.55,0,0,1,2.12,0A1.52,1.52,0,0,1,17.5,12,1.36,1.36,0,0,1,17.47,12.29Z"></path></svg>