<?xml version="1.0" encoding="utf-8"?><!-- Uploaded to: SVG Repo, www.svgrepo.com, Generator: SVG Repo Mixer Tools -->
<svg fill="rgb(189,23,189)" width="26px" height="26px" viewBox="0 -2 28 28" xmlns="http://www.w3.org/2000/svg"><path d="m5.216 11.998c0 1.44-1.168 2.608-2.608 2.608s-2.608-1.168-2.608-2.608 1.168-2.608 2.608-2.608 2.608 1.168 2.608 2.608z"/><path d="m5.216 2.608c0 1.44-1.168 2.608-2.608 2.608s-2.608-1.168-2.608-2.608 1.168-2.608 2.608-2.608 2.608 1.168 2.608 2.608z"/><path d="m5.216 21.389c0 1.44-1.168 2.608-2.608 2.608s-2.608-1.168-2.608-2.608 1.168-2.608 2.608-2.608 2.608 1.168 2.608 2.608z"/><path d="m9.794 0h15.247c1.441 0 2.61 1.168 2.61 2.61s-1.168 2.61-2.61 2.61h-15.247c-1.441 0-2.61-1.168-2.61-2.61s1.168-2.61 2.61-2.61z"/><path d="m9.794 9.39h15.247c1.441 0 2.61 1.168 2.61 2.61s-1.168 2.61-2.61 2.61h-15.247c-1.441 0-2.61-1.168-2.61-2.61s1.168-2.61 2.61-2.61z"/><path d="m9.794 18.781h15.247c1.441 0 2.61 1.168 2.61 2.61s-1.168 2.61-2.61 2.61h-15.247c-1.441 0-2.61-1.168-2.61-2.61s1.168-2.61 2.61-2.61z"/></svg>