<?xml version="1.0" encoding="iso-8859-1"?>
<!-- Uploaded to: SVG Repo, www.svgrepo.com, Generator: SVG Repo Mixer Tools -->
<svg fill="#000000" height="800px" width="800px" version="1.1" id="Layer_1" xmlns="http://www.w3.org/2000/svg" xmlns:xlink="http://www.w3.org/1999/xlink" 
	 viewBox="0 0 512.004 512.004" xml:space="preserve">
<g>
	<g>
		<path d="M501.133,30.028c-2.453-3.739-5.309-7.286-8.589-10.566c-6.231-6.231-13.408-10.975-21.08-14.218
			c-18.812-7.956-40.585-6.869-58.675,3.409c-0.36,0.204-0.725,0.396-1.082,0.607c-0.04,0.024-0.078,0.05-0.118,0.074
			c-3.613,2.153-7.072,4.676-10.32,7.578l-0.371,0.338l-47.448,42.472c-1.303,1.166-2.406,2.464-3.352,3.841L97.475,293.875
			c-0.142,0.13-0.263,0.273-0.4,0.405c-0.103,0.099-0.214,0.184-0.316,0.286c-8.35,8.35-21.822,8.35-30.151,0.01
			c-12.785-12.801-34.7-4.877-36.34,13.141L15.862,465.973l-9.612,9.612c-8.331,8.331-8.331,21.839,0,30.17
			c8.331,8.331,21.839,8.331,30.17,0l9.629-9.629l158.243-14.382c18.013-1.637,25.944-23.541,13.154-36.331
			c-8.35-8.35-8.35-21.822-0.01-30.151c0.142-0.142,0.262-0.296,0.399-0.441c0.096-0.101,0.201-0.188,0.295-0.291l230.291-252.599
			c1.387-0.95,2.695-2.059,3.868-3.37l42.795-47.808C515.498,87.909,517.327,54.697,501.133,30.028z M429.411,48.991l0.305-0.273
			c9.398-8.409,23.732-8.011,32.66,0.918c1.672,1.672,3.044,3.534,4.116,5.519c4.64,8.602,3.623,19.501-3.212,27.149l-28.015,30.729
			l-36.292-36.292L429.411,48.991z M367.409,105.517l39.079,39.079L201.652,369.274l-58.922-58.922L367.409,105.517z
			 M169.595,442.055l-76.421,6.946l18.68-18.68c8.331-8.331,8.331-21.839,0-30.17s-21.839-8.331-30.17,0L62.995,418.84l6.956-76.421
			c13.19,2.448,27,0.725,39.321-5.169l65.485,65.485C168.866,415.053,167.145,428.863,169.595,442.055z"/>
	</g>
</g>
</svg>