<?xml version="1.0" encoding="utf-8" ?>
<!-- Uploaded to: SVG Repo, www.svgrepo.com, Generator: SVG Repo Mixer Tools -->
<svg
    fill="#8D493A"
    height="40px"
    width="40px"
    version="1.1"
    id="Icons"
    xmlns="http://www.w3.org/2000/svg"
    xmlns:xlink="http://www.w3.org/1999/xlink"
    viewBox="0 0 32 32"
    xml:space="preserve"
>
<path
        d="M21,2H11c-5,0-9,4-9,9v10c0,5,4,9,9,9h10c5,0,9-4,9-9V11C30,6,26,2,21,2z M21.7,14.7l-5,5C16.5,19.9,16.3,20,16,20
	s-0.5-0.1-0.7-0.3l-5-5c-0.4-0.4-0.4-1,0-1.4s1-0.4,1.4,0l4.3,4.3l4.3-4.3c0.4-0.4,1-0.4,1.4,0S22.1,14.3,21.7,14.7z"
    />
</svg>
