<?xml version="1.0" encoding="iso-8859-1"?>
<!-- Uploaded to: SVG Repo, www.svgrepo.com, Generator: SVG Repo Mixer Tools -->
<!DOCTYPE svg PUBLIC "-//W3C//DTD SVG 1.1//EN" "http://www.w3.org/Graphics/SVG/1.1/DTD/svg11.dtd">
<svg fill="#000000" version="1.1" id="Capa_1" xmlns="http://www.w3.org/2000/svg" xmlns:xlink="http://www.w3.org/1999/xlink" 
	 width="800px" height="800px" viewBox="0 0 49.983 49.983"
	 xml:space="preserve">
<g>
	<path d="M48.688,17.238L28.46,5.636c-1.916-1.099-5.022-1.099-6.938,0L1.295,17.238c-1.916,1.1-1.679,1.99,0.53,1.99h3.384
		c-0.031,0.287-0.05,0.578-0.05,0.873v17.07c0,4.418,3.582,8,8,8h2.327v-6.569c0-2.209,1.791-4,4-4h11.012c2.209,0,4,1.791,3.999,4
		v6.569h2.328c4.419,0,8-3.581,8-8v-17.07c0-0.295-0.019-0.586-0.05-0.873h3.383C50.367,19.229,50.604,18.338,48.688,17.238z
		 M24.992,27.549c-1.995,0-3.613-1.618-3.613-3.613s1.618-3.612,3.613-3.612c1.995,0,3.613,1.617,3.613,3.612
		S26.987,27.549,24.992,27.549z"/>
</g>
</svg>