<svg version="1.1" id="Layer_1" xmlns="http://www.w3.org/2000/svg" xmlns:xlink="http://www.w3.org/1999/xlink" viewBox="0 0 508 508" xml:space="preserve" width="100px" height="100px" fill="#000000"><g id="SVGRepo_bgCarrier" stroke-width="0"></g><g id="SVGRepo_tracerCarrier" stroke-linecap="round" stroke-linejoin="round"></g><g id="SVGRepo_iconCarrier"> <circle style="fill:#90DFAA;" cx="254" cy="254" r="254"></circle> <path style="fill:#2C9984;" d="M89.2,447.2c44.4,38,102,60.8,164.8,60.8s120.4-22.8,164.8-60.8H89.2z"></path> <path style="fill:#FFFFFF;" d="M283.2,212c-14,6.8-28.4,14.8-42,23.6c10.8-3.2,21.2-5.6,32-8c-17.2,26-36.8,51.2-59.6,74 c-13.2-29.2-15.2-66.4-5.6-102.4c5.2,10.4,10.8,20.4,16.8,30c-4.4-16.4-7.6-33.6-9.6-50.8l0,0c4.8-12,10.8-23.6,18-34.8 c0.4,11.6,1.2,22.8,2.8,34c2-18,6-35.6,10.8-53.2c7.2-8.4,15.2-16.4,23.6-23.2c-1.2,12.4-1.6,24.8-1.2,36.8c4.4-16,9.6-32,16-48 c20-13.2,41.6-21.6,62.8-24c-5.6,20.8-12.8,40.8-20.8,60.4c-13.6,7.2-26.8,15.6-39.6,24.4c11.2-4,22-7.2,33.2-9.6 c-4,8.4-8,17.2-12,25.2l0,0c-12.8,8.8-25.6,18.8-38,29.6c9.6-4.4,18.8-8.4,28.4-12c-1.6,2.8-3.2,5.6-4.8,8.8 C291.2,199.2,287.2,205.6,283.2,212z"></path> <path style="fill:#E6E9EE;" d="M335.2,76.8c-8,7.2-19.6,17.6-32,31.6c-12.4,13.6-25.6,30.8-38,50c-6,9.6-12,20-17.6,30.8 s-10.4,21.6-15.2,33.2c-4.4,11.2-8.4,22.8-12,34.4c-3.6,11.6-6.4,23.2-8.4,34.4c-4,19.6-6,38.8-7.2,55.6c0,2.8,1.6,5.2,4,6.4l0,0 c1.6-18,4.4-38.8,9.6-60.4c2.4-11.2,5.6-22.4,9.2-33.6c3.6-11.2,7.6-22.4,12-33.6c4.4-11.2,9.2-22,14.8-32.8 c5.2-10.4,10.8-20.8,16.8-30.4c11.6-19.2,24-36.4,35.6-50.8c11.6-14,22-25.6,29.6-33.2s12-12,12-12C348.4,66,343.2,69.6,335.2,76.8z "></path> <path style="fill:#324A5E;" d="M260.8,328h-89.2c-28,12.4-47.2,35.6-47.2,62.4c0,20.8,11.6,39.6,30,52.8c3.6,2.4,8,4,12,4h99.2 c4.4,0,8.4-1.6,12-4c18.4-13.2,30-32,30-52.8C308,363.6,288.8,340,260.8,328z"></path> <rect x="171.6" y="312.4" style="fill:#2B3B4E;" width="89.2" height="15.6"></rect> <path style="fill:#324A5E;" d="M265.2,312.4h-98.4c-1.2,0-2-0.8-2-2V294c0-1.2,0.8-2,2-2h98.4c1.2,0,2,0.8,2,2v16.8 C267.2,311.6,266.4,312.4,265.2,312.4z"></path> </g></svg>
