<svg fill="#000000" width="100px" height="100px" viewBox="0 0 750 750" id="Layer_1" xmlns="http://www.w3.org/2000/svg"><g id="SVGRepo_bgCarrier" stroke-width="0"></g><g id="SVGRepo_tracerCarrier" stroke-linecap="round" stroke-linejoin="round"></g><g id="SVGRepo_iconCarrier"><path d="M574.93,520.27c1.2-42.99-29.69-77.71-53.76-110.42-25.47-34.18-58.67-65.41-104.13-63.76-14.28,.21-13.18-13.63-14.44-25.12,15.6-18.84-.6-43.02-43.45-32.61-.66-3.46-1.05-7-1.09-10.63-.51-33.86,20.25-64.95,41.88-89.46,.16-.09,.31-.19,.47-.29,5.42,18.65,18.92,34.36,32.79,47.88,8.43,9.36,19.27-2.8,17.21-12.42-5.59-17.01-23.89-24.08-29.72-43.68,8.08,.27,14.54-4.48,18.31-11.02,16.8,1.8,32.52,9.31,47.66,17.5,10.74,5.66,17.67-9.63,13.88-18.27-3.51-9.28-15.38-10.91-23.08-15.72-10.07-4.92-21.04-9.02-32.24-10.87,3.73-2.26,7.46-4.46,10.94-4.88,13.27-3.74,27.02-5.36,40.62-7.51,6.8-1.41,9.69-9.61,8.91-15.84-1.33-16.4-18.28-10.86-29.23-9.07-17.35,2.9-52.36,8.22-53.06,29.3-1.51-.28-3.07-.45-4.66-.51,.08-14.51,2.63-28.95,9.62-41.88,4.39-9.04,15.83-14.67,15.62-25.54,.11-6.13-3.65-13.65-10.5-13.81-19.64,9.04-33.38,40.17-35.15,65.57-.51-.43-1.02-.86-1.53-1.29-.68-1.14-1.53-2.14-2.59-2.94-10.94-8.61-57.59-34.89-59.63-8.47-1.58,14.67,9.33,16.38,20.77,18.73,9.06,2.41,17.08,7.24,25.53,11.07,.71,.84,1.44,1.65,2.19,2.45-5.32,.1-10.3,.47-14.1,.69-17.8,2-60.41,21.84-35.07,41.74,8.6,2.39,14.96-7.51,22.73-10.03,10.06-5.69,21.81-4.89,32.3-3.66,.08,.61,.2,1.19,.37,1.74-25.99,26.41-49.81,65.91-52.29,104.4-5.71-10.3-12.59-19.83-21.59-27.52-14.86-10.75-30.56-22.73-49.11-25.62-3.75-.49-7.95-.57-11.86,.05,.69-1.34,1.46-2.54,2.36-3.51,3.03-3.79,6.29-7.43,9.58-10.98,6.77-7.15,4.16-23.81-6.98-24.56-8.39,1.92-20.07,15.94-25.18,29.61-7.56-3.44-17.99-5.3-23.79-7.04-9.3-.79-29.37-2.89-33.81,7.16-4.3,8.02-.38,22.83,10.54,21.58,2.63-.41,5.26-.73,7.89-1.05,8.15-1.23,15.94,.76,23.71,2.91-13.28,11.34-14.97,31.84-16.48,48.39-.51,6.2,1.92,14.61,8.99,15.98,18.8,.2,9.37-28.66,17.95-40.03,2.53,1.43,5.58,2.24,8.8,2.45,4.91,2.77,7.65,8.05,10.95,12.43,11.29,14.75,24.63-7.56,16.04-18.35-1.82-2.46-3.57-5.05-5.42-7.55,2.77,.07,5.53,.23,8.01,.9,8.25,2.61,15.76,6.92,23.07,11.48,14.32,6.83,24.39,18.49,31.95,31.85-3.72,1.14-5.99,3.93-7.4,7.56-7.21,2.74-10.49,17.04-3.32,28.38,1.8,33.41-9.36,29.84-34.74,47.96-23.02,18.71-47.85,37.51-64.28,62.54-19.86,42.54-37.03,110-11.8,152.83,9.69,18.21,22.96,34.19,37.71,48.51,15.21,15.05,28.87,32.33,47.85,42.88,22.69,14.43,49.7,16.48,75.87,17.51,26.61,.12,53.06-4.34,79.72-4.05,20.45,.72,40.99-3.69,58.99-13.54,27.05-13.96,43.17-41.87,54.77-68.96,14.42-28.41,19.93-59.85,18.9-91.57Zm-200.05-210.64c-.63,.21-1.27,.42-1.91,.62-1.85,.52-3.7,.99-5.56,1.4-.32-.66-.64-1.32-.95-1.98,2.79-.26,5.6-.3,8.42-.04Zm161.07,284.77c-9.46,25.42-20.73,51.79-44.4,67.06-37.63,29.48-101.15,12.9-144.42,3.44-60.14-8.29-106.49-43.36-128.84-100.14-11.24-31.65-10.33-76.82,2.23-108.03,4.59-10.57,13.32-18.52,22.46-25.21,14.38-9.56,26.97-21.32,40.23-32.28,16.94-11.92,40.49-19.57,47.59-40.98,1.86-6.12,2.18-12.44,2.19-18.8,3.67,.76,7.79,1.16,12.44,1.11,15.84-.08,28.55-2.66,38.31-6.65,.68,3.66,1.33,7.16,1.47,10.15,9.85,48.58,54,22.47,95.83,59.19,32.86,27.22,75.98,57.74,76.11,104.8-1.5,30.05-7.89,59.28-21.19,86.33Z"></path><ellipse cx="329.68" cy="505.6" rx="9.91" ry="13.05"></ellipse><ellipse cx="395.83" cy="480.15" rx="9.92" ry="13.06"></ellipse><path d="M413.08,492.81c-12.82,29.62-41.93,44.76-72.75,32.34-15.92-6.05-23.15,17.68-9.69,24.71,6.83,3.56,14.35,5.24,21.91,6.75,24.12,5.12,48.78-8.12,63.29-27.01,6.97-11.43,23.47-27.77,11.04-40.66-4.53-4.21-11.64-1.49-13.8,3.87Z"></path></g></svg>
